<svg width="85" height="85" viewBox="0 0 85 85" fill="none" xmlns="http://www.w3.org/2000/svg">
<g id="waves_24px">
<path id="icon/content/waves_24px" fill-rule="evenodd" clip-rule="evenodd" d="M70.6562 15.7958C68 14.45 65.0604 12.9625 60.2083 12.9625C55.3562 12.9625 52.4166 14.45 49.7604 15.7958L49.4782 15.935C47.3017 17.0091 45.4544 17.9208 42.5 17.9208C39.3125 17.9208 37.5416 17.0354 35.2396 15.7958L34.9624 15.6589C32.3796 14.3817 29.5097 12.9625 24.7916 12.9625C19.9354 12.9625 17.0372 14.431 14.3947 15.77L14.3437 15.7958L14.2534 15.8417C11.9931 16.9895 10.1591 17.9208 7.08331 17.9208V24.7563C11.7905 24.7563 14.7813 23.2801 17.4076 21.9839L17.5312 21.9229L17.6215 21.8771C19.8818 20.7293 21.7158 19.7979 24.7916 19.7979C27.9083 19.7979 29.75 20.6833 32.0521 21.9229L32.1031 21.9488C34.7455 23.2877 37.6437 24.7563 42.5 24.7563C47.2181 24.7563 50.0879 23.3371 52.6707 22.0599L52.9479 21.9229L53.2301 21.7838C55.4065 20.7096 57.2539 19.7979 60.2083 19.7979C63.3958 19.7979 65.1666 20.6833 67.4687 21.9229C70.125 23.2688 73.0646 24.7563 77.9166 24.7563V17.85C74.7291 17.85 72.9583 16.9646 70.6562 15.7958ZM49.884 47.1848C52.5103 45.8886 55.5011 44.4125 60.2083 44.4125C64.9896 44.4125 68 45.9 70.6562 47.2459C72.9583 48.4854 74.7291 49.3709 77.9166 49.3709V56.2771C73.0646 56.2771 70.125 54.7896 67.4687 53.4438C65.1666 52.2042 63.3958 51.3188 60.2083 51.3188C57.0208 51.3188 55.25 52.2042 52.9479 53.4438L52.6707 53.5807C50.0879 54.8579 47.2181 56.2771 42.5 56.2771C37.6437 56.2771 34.7456 54.8086 32.1031 53.4696L32.0521 53.4438C29.75 52.2042 27.9791 51.3188 24.7916 51.3188C21.6041 51.3188 19.8333 52.2042 17.5312 53.4438L17.4076 53.5048C14.7813 54.801 11.7905 56.2771 7.08331 56.2771V49.3709C10.0433 49.3709 11.8532 48.4764 13.9997 47.4156C14.1134 47.3595 14.228 47.3028 14.3437 47.2459L14.6209 47.1089C17.2037 45.8317 20.0736 44.4125 24.7916 44.4125C29.6479 44.4125 32.5461 45.8811 35.1886 47.22L35.2396 47.2459C37.5416 48.4854 39.3125 49.3709 42.5 49.3709C45.4544 49.3709 47.3017 48.4591 49.4782 47.385L49.7604 47.2459L49.884 47.1848ZM49.7604 63.0063C52.4166 61.6604 55.4271 60.1729 60.2083 60.1729C64.9896 60.1729 68 61.6604 70.6562 63.0063C72.9583 64.2458 74.7291 65.1313 77.9166 65.1313V72.0375C73.0646 72.0375 70.125 70.55 67.4687 69.2042C65.1666 67.9646 63.3958 67.0792 60.2083 67.0792C57.1335 67.0792 55.2578 68.0315 52.9623 69.1969L52.9479 69.2042L52.8969 69.23C50.2544 70.569 47.3562 72.0375 42.5 72.0375C37.6437 72.0375 34.7456 70.569 32.1031 69.23L32.0521 69.2042C29.75 67.9646 27.9083 67.0792 24.7916 67.0792C21.7158 67.0792 19.8818 68.0105 17.6215 69.1583L17.5312 69.2042C14.875 70.55 11.8646 72.0375 7.08331 72.0375V65.1313C10.1591 65.1313 11.9931 64.1999 14.2534 63.0521L14.3437 63.0063L14.3947 62.9804C17.0372 61.6415 19.9354 60.1729 24.7916 60.1729C29.6479 60.1729 32.5461 61.6415 35.1886 62.9804L35.2396 63.0063C37.5416 64.2458 39.3125 65.1313 42.5 65.1313C45.5748 65.1313 47.4505 64.179 49.746 63.0136L49.7604 63.0063ZM49.8841 31.4244C52.5103 30.1282 55.5011 28.6521 60.2083 28.6521C64.9896 28.6521 68 30.1396 70.6562 31.4854C72.9583 32.725 74.7291 33.6104 77.9166 33.6104V40.5167C73.0646 40.5167 70.125 39.0292 67.4687 37.6833C65.1666 36.4437 63.3958 35.5583 60.2083 35.5583C57.2539 35.5583 55.4065 36.47 53.2301 37.5442C53.1367 37.5903 53.0427 37.6367 52.9479 37.6833C52.8558 37.7287 52.7634 37.7744 52.6707 37.8203C50.0879 39.0975 47.2181 40.5167 42.5 40.5167C37.6437 40.5167 34.7456 39.0481 32.1031 37.7092L32.0521 37.6833C29.75 36.4437 27.8729 35.5583 24.7916 35.5583C21.8372 35.5583 19.9899 36.47 17.8134 37.5442C17.72 37.5903 17.626 37.6367 17.5312 37.6833C17.4901 37.7036 17.4489 37.724 17.4076 37.7443C14.7813 39.0405 11.7905 40.5167 7.08331 40.5167V33.6104C10.2708 33.6104 12.0416 32.725 14.3437 31.4854C14.4358 31.44 14.5282 31.3943 14.6209 31.3484C17.2037 30.0712 20.0736 28.6521 24.7916 28.6521C29.6479 28.6521 32.5461 30.1206 35.1886 31.4596L35.2396 31.4854C37.5416 32.725 39.3125 33.6104 42.5 33.6104C45.6875 33.6104 47.4583 32.725 49.7604 31.4854C49.8015 31.4651 49.8428 31.4448 49.8841 31.4244Z" fill="white"/>
</g>
</svg>
